HIERARCHY
ROOT Hips
{
	OFFSET	0.00	0.00	0.00
	CHANNELS 6 Xposition Yposition Zposition Zrotation Xrotation Yrotation
	JOINT LeftUpLeg
	{
		OFFSET	 0.126116	-0.014019	-0.065224
		CHANNELS 3 Zrotation Xrotation Yrotation
		JOINT LeftLeg
		{
			OFFSET	 0.000000	 0.000000	 0.569914
			CHANNELS 3 Zrotation Xrotation Yrotation
			JOINT LeftFoot
			{
				OFFSET	 0.000000	 0.000000	 0.544423
				CHANNELS 3 Zrotation Xrotation Yrotation
				JOINT LeftToeBase
				{
					OFFSET	 0.000000	 0.000000	 0.207117
					CHANNELS 3 Zrotation Xrotation Yrotation
					End Site
					{
						OFFSET	 0.000000	 0.000000	 0.207117
					}
				}
			}
		}
	}
	JOINT RightUpLeg
	{
		OFFSET	-0.124023	-0.008373	-0.065224
		CHANNELS 3 Zrotation Xrotation Yrotation
		JOINT RightLeg
		{
			OFFSET	 0.000000	 0.000000	 0.570047
			CHANNELS 3 Zrotation Xrotation Yrotation
			JOINT RightFoot
			{
				OFFSET	 0.000000	 0.000000	 0.544354
				CHANNELS 3 Zrotation Xrotation Yrotation
				JOINT RightToeBase
				{
					OFFSET	 0.000000	 0.000000	 0.207540
					CHANNELS 3 Zrotation Xrotation Yrotation
					End Site
					{
						OFFSET	 0.000000	 0.000000	 0.207540
					}
				}
			}
		}
	}
	JOINT Spine
	{
		OFFSET	 0.000184	-0.007763	 0.117403
		CHANNELS 3 Zrotation Xrotation Yrotation
		JOINT Spine1
		{
			OFFSET	 0.000000	 0.000000	 0.137269
			CHANNELS 3 Zrotation Xrotation Yrotation
			JOINT Spine2
			{
				OFFSET	 0.000000	 0.000000	 0.156879
				CHANNELS 3 Zrotation Xrotation Yrotation
				JOINT LeftShoulder
				{
					OFFSET	 0.080501	-0.002496	 0.160144
					CHANNELS 3 Zrotation Xrotation Yrotation
					JOINT LeftArm
					{
						OFFSET	 0.000000	 0.000000	 0.164363
						CHANNELS 3 Zrotation Xrotation Yrotation
						JOINT LeftForeArm
						{
							OFFSET	 0.000000	 0.000000	 0.364576
							CHANNELS 3 Zrotation Xrotation Yrotation
							JOINT LeftHand
							{
								OFFSET	 0.000000	 0.000000	 0.360812
								CHANNELS 3 Zrotation Xrotation Yrotation
								JOINT LeftHandIndex1
								{
									OFFSET	 0.000000	 0.000000	 0.086006
									CHANNELS 3 Zrotation Xrotation Yrotation
									JOINT LeftHandIndex2
									{
										OFFSET	 0.000000	 0.000000	 0.047237
										CHANNELS 3 Zrotation Xrotation Yrotation
										JOINT LeftHandIndex3
										{
											OFFSET	-0.004284	-0.000551	 0.038165
											CHANNELS 3 Zrotation Xrotation Yrotation
											End Site
											{
												OFFSET	-0.004284	-0.000551	 0.038165
											}
										}
									}
								}
							}
						}
					}
				}
				JOINT Neck
				{
					OFFSET	 0.000000	 0.000000	 0.176489
					CHANNELS 3 Zrotation Xrotation Yrotation
					JOINT Head
					{
						OFFSET	 0.000000	-0.001747	 0.077940
						CHANNELS 3 Zrotation Xrotation Yrotation
						End Site
						{
							OFFSET	 0.000000	-0.001747	 0.077940
						}
					}
				}
				JOINT RightShoulder
				{
					OFFSET	-0.080363	 0.000306	 0.159706
					CHANNELS 3 Zrotation Xrotation Yrotation
					JOINT RightArm
					{
						OFFSET	 0.000000	 0.000000	 0.164196
						CHANNELS 3 Zrotation Xrotation Yrotation
						JOINT RightForeArm
						{
							OFFSET	 0.000000	 0.000000	 0.365611
							CHANNELS 3 Zrotation Xrotation Yrotation
							JOINT RightHand
							{
								OFFSET	 0.000000	 0.000000	 0.360648
								CHANNELS 3 Zrotation Xrotation Yrotation
								JOINT RightHandIndex1
								{
									OFFSET	 0.000000	 0.000000	 0.069977
									CHANNELS 3 Zrotation Xrotation Yrotation
									JOINT RightHandIndex2
									{
										OFFSET	 0.000000	 0.000000	 0.052305
										CHANNELS 3 Zrotation Xrotation Yrotation
										JOINT RightHandIndex3
										{
											OFFSET	 0.009002	-0.000782	 0.042196
											CHANNELS 3 Zrotation Xrotation Yrotation
											End Site
											{
												OFFSET	 0.009002	-0.000782	 0.042196
											}
										}
									}
								}
							}
						}
					}
				}
			}
		}
	}
}
MOTION
Frames:    10
Frame Time: 0.03333334
-0.632305	-0.163973	 1.249717	-159.573900	 1.886621	 7.666671	 16.649950	-10.497770	 163.878100	-8.991144	-30.352130	-3.570291	-68.671800	 77.404950	 66.967960	-2.385833	 28.452760	 0.000004	-3.300372	-44.989040	 176.537800	-27.362980	-55.338970	-13.661490	 24.280610	 31.970730	-34.242420	 2.384659	 28.388700	-0.000001	 75.432980	-8.818883	-17.228000	 46.539190	 23.004480	-5.711670	-17.388840	-4.655248	 7.909545	-91.776180	 78.527420	-180.000000	 16.228730	 43.482730	-36.559710	-32.647620	 20.183040	-41.211270	 18.639860	-3.993757	-3.509483	-4.131196	 21.524690	 0.986298	-5.167839	 0.733520	 3.519257	-1.378229	 35.397820	-2.634230	-14.066270	 16.444750	-7.640783	-28.744490	 2.558481	 5.706188	 89.782130	 78.292730	 179.995400	 1.557159	 63.060230	 1.537705	 29.379590	 10.091040	 14.855350	 104.902400	-33.889420	-17.798740	 5.715225	 19.176060	-3.692089	 5.027514	 0.245388	-9.378011	-2.350882	 35.473990	 5.254307
-0.631631	-0.162399	 1.250220	-160.047400	 2.093756	 8.073199	 18.041030	-10.969060	 163.378400	-8.584655	-30.167500	-3.344212	-81.771560	 79.758600	 79.081830	-2.385833	 28.452760	 0.000004	-2.573030	-45.087650	 176.356600	-21.177510	-55.917700	-8.540574	 39.549400	 44.578630	-41.219010	 2.384659	 28.388700	-0.000001	 75.020880	-12.312900	-18.529010	 46.886670	 27.501010	-8.257982	-17.112310	-6.048961	 8.306322	-91.776200	 78.527420	-180.000000	 15.928490	 43.401410	-36.457870	-31.735550	 19.881650	-41.653640	 19.470740	-3.553716	-3.899962	-4.131196	 21.524690	 0.986298	-5.167839	 0.733520	 3.519257	-1.378229	 35.397820	-2.634230	-14.024520	 16.198970	-7.709586	-28.800040	 2.423203	 5.259639	 89.782150	 78.312270	 179.993100	 0.905329	 63.269940	 2.612347	 27.947510	 10.070690	 14.854270	 104.551300	-31.089030	-16.117470	 5.715225	 19.176060	-3.692089	 5.027514	 0.245388	-9.378011	-2.350882	 35.473990	 5.254307
-0.628983	-0.160273	 1.250932	-161.937300	 3.115705	 8.394611	 20.876420	-12.253150	 163.256500	-6.940576	-29.972470	-2.496893	-102.956600	 80.977270	 98.257160	-2.385833	 28.452760	 0.000004	-3.512824	-45.947770	 175.373500	-17.873880	-55.164550	-5.733121	 43.480450	 49.719750	-41.288440	 2.384659	 28.388700	-0.000001	 76.778950	-12.509260	-18.746670	 46.515080	 27.252180	-5.511530	-17.169940	-5.407245	 7.249547	-91.776180	 78.527400	 180.000000	 16.155240	 43.163720	-36.385720	-30.594240	 19.484800	-42.225550	 20.254980	-3.204368	-4.288990	-4.131196	 21.524690	 0.986298	-5.167839	 0.733520	 3.519257	-1.378229	 35.397820	-2.634230	-13.930030	 16.793420	-7.768309	-28.664750	 2.091607	 5.283004	 89.782120	 78.320280	 179.992600	-1.449844	 63.658970	 4.804842	 25.960550	 10.031550	 14.849330	 100.808700	-32.830480	-15.552830	 5.715225	 19.176060	-3.692089	 5.027514	 0.245388	-9.378011	-2.350882	 35.473990	 5.254307
-0.623168	-0.154574	 1.250745	-161.954500	 3.664185	 5.676783	 22.115700	-10.604540	 165.891500	-4.717363	-27.948590	-1.296804	-164.440500	 79.276990	 156.845000	-2.385833	 28.452760	 0.000004	 3.197568	-46.011030	-178.686000	-17.435750	-55.284540	-5.379604	 56.614460	 52.172660	-52.726540	 2.384659	 28.388700	-0.000001	 77.172320	-12.595950	-15.161880	 46.602940	 29.759380	-8.097366	-16.449510	-8.135077	 7.288318	-91.776150	 78.527380	 180.000000	 16.448970	 43.403400	-35.510090	-29.395030	 19.478900	-43.855300	 20.997390	-2.853147	-4.653650	-4.131196	 21.524690	 0.986298	-5.167839	 0.733520	 3.519257	-1.378229	 35.397820	-2.634230	-13.456360	 17.172120	-8.169317	-28.519340	 2.321404	 7.089006	 89.782140	 78.330930	 179.993000	-5.057280	 63.627630	 8.111241	 24.768320	 9.980939	 14.827820	 98.891140	-32.316360	-13.054090	 5.715225	 19.176060	-3.692089	 5.027514	 0.245388	-9.378011	-2.350882	 35.473990	 5.254307
-0.613791	-0.147924	 1.249535	-162.277900	 2.137139	 5.081695	 21.979220	-7.429896	 165.368000	-4.555586	-26.143750	-1.147802	-150.665300	 80.803200	 142.945700	-2.385833	 28.452760	 0.000004	 5.493501	-43.164810	-177.245600	-16.710850	-54.310310	-4.724771	 56.724330	 54.463710	-51.194630	 2.384659	 28.388700	-0.000001	 78.015060	-7.829117	-14.152030	 45.922410	 25.355710	-7.699300	-15.895500	-7.662644	 8.964780	-91.776150	 78.527380	 180.000000	 17.593540	 42.648820	-35.630230	-28.936250	 19.251100	-44.081530	 21.597300	-2.568243	-4.949359	-4.131196	 21.524690	 0.986298	-5.167839	 0.733520	 3.519257	-1.378229	 35.397820	-2.634230	-12.849640	 17.092770	-9.143507	-28.562530	 2.560935	 9.090810	 89.782160	 78.321640	 179.995300	-10.259580	 63.493950	 12.623660	 25.886630	 9.932974	 14.799110	 97.255710	-41.513480	-9.915111	 5.715225	 19.176060	-3.692089	 5.027514	 0.245388	-9.378011	-2.350882	 35.473990	 5.254307
-0.602826	-0.138619	 1.249235	-161.860900	 2.534739	 6.881693	 27.039680	-9.413084	 162.431300	-8.470918	-25.433120	-2.809439	-49.533950	 85.551380	 45.101450	-2.385833	 28.452760	 0.000004	 6.177790	-41.821180	-178.802100	-16.763820	-52.803460	-4.676626	 62.296490	 55.468900	-55.746510	 2.384659	 28.388700	-0.000001	 76.976760	-10.002280	-15.865130	 46.322130	 26.110950	-8.335202	-15.855310	-7.174505	 8.912691	-91.776160	 78.527380	 180.000000	 18.175910	 42.118600	-37.011230	-29.573110	 18.611290	-41.852180	 21.735940	-2.459011	-5.082365	-4.131196	 21.524690	 0.986298	-5.167839	 0.733520	 3.519257	-1.378229	 35.397820	-2.634230	-12.685800	 17.411300	-9.264754	-28.531220	 2.015018	 9.349990	 89.782140	 78.320990	 179.994900	-11.741840	 62.996860	 14.566620	 28.613080	 9.893753	 14.765400	 99.650200	-48.351190	-6.233202	 5.715225	 19.176060	-3.692089	 5.027514	 0.245388	-9.378011	-2.350882	 35.473990	 5.254307
-0.586161	-0.125489	 1.248474	-160.320300	 2.497439	 8.076309	 31.129910	-10.300040	 159.704800	-8.890539	-23.579070	-2.786910	-8.700924	 68.804870	 5.468155	-2.385833	 28.452760	 0.000004	 6.381591	-39.322190	-179.920800	-16.879920	-51.042350	-4.656455	 64.793310	 57.497080	-56.933420	 2.384659	 28.388700	-0.000001	 75.507040	-9.463630	-16.533860	 46.542690	 24.159800	-8.561583	-15.978980	-6.303114	 9.308559	-91.776120	 78.527360	 180.000000	 19.464980	 41.017750	-38.854910	-30.954580	 17.985090	-38.847400	 20.924500	-2.712019	-4.889785	-4.131196	 21.524690	 0.986298	-5.167839	 0.733520	 3.519257	-1.378229	 35.397820	-2.634230	-13.168540	 17.696290	-7.873491	-28.165950	 1.834708	 8.630379	 89.782120	 78.306270	 179.996100	-11.917260	 62.412700	 15.318740	 29.669090	 9.814001	 14.722250	 101.540900	-55.554800	-3.903818	 5.715225	 19.176060	-3.692089	 5.027514	 0.245388	-9.378011	-2.350882	 35.473990	 5.254307
-0.569011	-0.111234	 1.247968	-159.157800	 2.050365	 6.429837	 32.718980	-6.821857	 159.782300	-6.877869	-19.160720	-1.620288	-8.621821	 54.372470	 6.147814	-2.385833	 28.452760	 0.000004	 7.215879	-36.734530	-178.055300	-16.813510	-50.206310	-4.550065	 67.398090	 57.320970	-59.328460	 2.384659	 28.388700	-0.000001	 75.427510	-7.817408	-15.074630	 46.611670	 24.747660	-10.427060	-16.400680	-7.735175	 10.351460	-91.776250	 78.527400	-180.000000	 20.725320	 39.663560	-39.205880	-31.791270	 18.222040	-38.634570	 20.571030	-2.990495	-4.582324	-4.131196	 21.524690	 0.986298	-5.167839	 0.733520	 3.519257	-1.378229	 35.397820	-2.634230	-14.281360	 17.774070	-7.128310	-28.649310	 1.583822	 7.202184	 89.782130	 78.305130	 179.996500	-9.740613	 62.626990	 14.289960	 29.438450	 9.716149	 14.677290	 102.067200	-58.847960	-6.273804	 5.715225	 19.176060	-3.692089	 5.027514	 0.245388	-9.378011	-2.350882	 35.473990	 5.254307
-0.548806	-0.092859	 1.248471	-157.362500	 2.909745	 5.678959	 30.303740	-3.684798	 159.878300	-2.333071	-14.777050	-0.097156	-10.584180	 43.048970	 5.995883	-2.385833	 28.452760	 0.000004	 7.109879	-35.142020	-177.405100	-16.479150	-48.972080	-4.214364	 80.883450	 54.654460	-72.474690	 2.384659	 28.388700	-0.000001	 73.810910	-11.111710	-15.995560	 47.131310	 30.370160	-12.544460	-17.405020	-9.117028	 9.934810	-91.776250	 78.527400	-180.000000	 20.412470	 39.159920	-39.382410	-31.783430	 17.745500	-37.780860	 21.939950	-2.787461	-4.714488	-4.131196	 21.524690	 0.986298	-5.167839	 0.733520	 3.519257	-1.378229	 35.397820	-2.634230	-14.960140	 17.403420	-9.274645	-30.304640	 0.362629	 6.831011	 89.782140	 78.321510	 179.992700	-5.357480	 62.630680	 12.599420	 28.368960	 9.586904	 14.618250	 99.731940	-53.761910	-14.527570	 5.715225	 19.176060	-3.692089	 5.027514	 0.245388	-9.378011	-2.350882	 35.473990	 5.254307
-0.527786	-0.076279	 1.246976	-157.593900	 0.334177	 4.296898	 26.832010	 6.662308	 159.622700	 2.268004	-6.082886	 0.447992	-19.259490	 28.410270	 19.055460	-2.385833	 28.452760	 0.000004	 5.788735	-30.766250	-177.630100	-17.476180	-47.302090	-4.842633	 73.069340	 57.947970	-63.764460	 2.384659	 28.388700	-0.000001	 75.496450	-3.611862	-15.949000	 45.873180	 24.902630	-10.744150	-18.419620	-8.742744	 12.286440	-91.776250	 78.527380	-180.000000	 21.642240	 38.543780	-38.696770	-30.723640	 17.117740	-37.742700	 23.390120	-2.563816	-4.991547	-4.131196	 21.524690	 0.986298	-5.167839	 0.733520	 3.519257	-1.378229	 35.397820	-2.634230	-16.840040	 16.728410	-8.088488	-31.193000	 0.407507	 4.001215	 89.782070	 78.300480	 179.996200	-2.839540	 62.810680	 11.101300	 26.717610	 9.441648	 14.557390	 94.541990	-57.869060	-21.965710	 5.715225	 19.176060	-3.692089	 5.027514	 0.245388	-9.378011	-2.350882	 35.473990	 5.254307
